<?xml version="1.0" encoding="utf-8"?>
<svg width="700pt" height="700pt" version="1.1" viewBox="0 0 700 700" xmlns="http://www.w3.org/2000/svg" xmlns:xlink="http://www.w3.org/1999/xlink">
  <defs>
    <symbol id="u" overflow="visible">
      <path d="m9.3125-0.5625c-0.48047 0.25-0.98047 0.4375-1.5 0.5625-0.52344 0.13281-1.0703 0.20312-1.6406 0.20312-1.6797 0-3.0117-0.46875-4-1.4062-0.99219-0.94531-1.4844-2.2266-1.4844-3.8438 0-1.625 0.49219-2.9062 1.4844-3.8438 0.98828-0.94531 2.3203-1.4219 4-1.4219 0.57031 0 1.1172 0.070312 1.6406 0.20312 0.51953 0.125 1.0195 0.30859 1.5 0.54688v2.1094c-0.49219-0.33203-0.96875-0.57812-1.4375-0.73438s-0.96484-0.23438-1.4844-0.23438c-0.9375 0-1.6719 0.30469-2.2031 0.90625-0.53125 0.59375-0.79688 1.418-0.79688 2.4688 0 1.043 0.26562 1.8594 0.79688 2.4531s1.2656 0.89062 2.2031 0.89062c0.51953 0 1.0156-0.070313 1.4844-0.21875 0.46875-0.15625 0.94531-0.39844 1.4375-0.73438z"/>
    </symbol>
    <symbol id="a" overflow="visible">
      <path d="m6.8125-5.5312c-0.21875-0.09375-0.43359-0.16016-0.64062-0.20312-0.21094-0.050781-0.41797-0.078125-0.625-0.078125-0.625 0-1.1094 0.19922-1.4531 0.59375-0.33594 0.39844-0.5 0.96875-0.5 1.7188v3.5h-2.4219v-7.5938h2.4219v1.25c0.3125-0.5 0.67188-0.86328 1.0781-1.0938 0.40625-0.22656 0.89062-0.34375 1.4531-0.34375 0.082031 0 0.17188 0.007812 0.26562 0.015625 0.09375 0 0.22656 0.015625 0.40625 0.046875z"/>
    </symbol>
    <symbol id="c" overflow="visible">
      <path d="m8.75-3.8125v0.6875h-5.6719c0.050781 0.57422 0.25391 1 0.60938 1.2812 0.35156 0.28125 0.84766 0.42188 1.4844 0.42188 0.50781 0 1.0312-0.070313 1.5625-0.21875 0.53906-0.15625 1.0938-0.38281 1.6562-0.6875v1.8594c-0.57422 0.21875-1.1484 0.38672-1.7188 0.5-0.57422 0.11328-1.1523 0.17188-1.7344 0.17188-1.375 0-2.4453-0.34766-3.2031-1.0469-0.76172-0.70703-1.1406-1.6914-1.1406-2.9531 0-1.2383 0.375-2.2109 1.125-2.9219 0.75-0.70703 1.7812-1.0625 3.0938-1.0625 1.1875 0 2.1406 0.35938 2.8594 1.0781s1.0781 1.6836 1.0781 2.8906zm-2.5-0.8125c0-0.45703-0.13672-0.82812-0.40625-1.1094-0.26172-0.28906-0.60938-0.4375-1.0469-0.4375-0.46875 0-0.85547 0.13672-1.1562 0.40625-0.29297 0.26172-0.47656 0.64062-0.54688 1.1406z"/>
    </symbol>
    <symbol id="e" overflow="visible">
      <path d="m4.5781-3.4219c-0.51172 0-0.89844 0.089844-1.1562 0.26562-0.25 0.16797-0.375 0.41797-0.375 0.75 0 0.3125 0.097656 0.55859 0.29688 0.73438 0.20703 0.16797 0.5 0.25 0.875 0.25 0.44531 0 0.82812-0.16016 1.1406-0.48438 0.3125-0.33203 0.46875-0.74219 0.46875-1.2344v-0.28125zm3.7031-0.90625v4.3281h-2.4531v-1.125c-0.32422 0.46094-0.6875 0.79688-1.0938 1.0156-0.40625 0.20703-0.90234 0.3125-1.4844 0.3125-0.79297 0-1.4336-0.22656-1.9219-0.6875-0.49219-0.46875-0.73438-1.0664-0.73438-1.7969 0-0.88281 0.30469-1.5352 0.92188-1.9531 0.61328-0.41406 1.5781-0.625 2.8906-0.625h1.4219v-0.1875c0-0.38281-0.15234-0.66406-0.45312-0.84375-0.30469-0.1875-0.77344-0.28125-1.4062-0.28125-0.52344 0-1.0078 0.054687-1.4531 0.15625-0.44922 0.10547-0.86719 0.26172-1.25 0.46875v-1.8438c0.51953-0.125 1.0391-0.21875 1.5625-0.28125 0.51953-0.070313 1.0469-0.10938 1.5781-0.10938 1.3633 0 2.3477 0.27344 2.9531 0.8125 0.61328 0.54297 0.92188 1.4219 0.92188 2.6406z"/>
    </symbol>
    <symbol id="d" overflow="visible">
      <path d="m3.8125-9.75v2.1562h2.5156v1.7344h-2.5156v3.2188c0 0.35547 0.066406 0.59375 0.20312 0.71875 0.14453 0.125 0.42578 0.1875 0.84375 0.1875h1.25v1.7344h-2.0781c-0.96094 0-1.6406-0.19531-2.0469-0.59375-0.39844-0.40625-0.59375-1.0859-0.59375-2.0469v-3.2188h-1.2031v-1.7344h1.2031v-2.1562z"/>
    </symbol>
    <symbol id="g" overflow="visible">
      <path d="m6.3281-6.4844v-4.0625h2.4531v10.547h-2.4531v-1.0938c-0.33594 0.44922-0.70312 0.77734-1.1094 0.98438-0.39844 0.20703-0.85938 0.3125-1.3906 0.3125-0.9375 0-1.7109-0.36719-2.3125-1.1094-0.59375-0.75-0.89062-1.7109-0.89062-2.8906 0-1.1641 0.29688-2.1172 0.89062-2.8594 0.60156-0.75 1.375-1.125 2.3125-1.125 0.53125 0 0.99219 0.10547 1.3906 0.3125 0.40625 0.21094 0.77344 0.53906 1.1094 0.98438zm-1.5938 4.9219c0.51953 0 0.91406-0.1875 1.1875-0.5625 0.26953-0.38281 0.40625-0.94141 0.40625-1.6719 0-0.71875-0.13672-1.2656-0.40625-1.6406-0.27344-0.38281-0.66797-0.57812-1.1875-0.57812-0.51172 0-0.90625 0.19531-1.1875 0.57812-0.27344 0.375-0.40625 0.92188-0.40625 1.6406 0 0.73047 0.13281 1.2891 0.40625 1.6719 0.28125 0.375 0.67578 0.5625 1.1875 0.5625z"/>
    </symbol>
    <symbol id="n" overflow="visible">
      <path d="m5.2031-1.5625c0.51953 0 0.91406-0.1875 1.1875-0.5625 0.28125-0.38281 0.42188-0.94141 0.42188-1.6719 0-0.71875-0.14062-1.2656-0.42188-1.6406-0.27344-0.38281-0.66797-0.57812-1.1875-0.57812-0.52344 0-0.92188 0.19531-1.2031 0.57812-0.27344 0.375-0.40625 0.92188-0.40625 1.6406s0.13281 1.2734 0.40625 1.6562c0.28125 0.38672 0.67969 0.57812 1.2031 0.57812zm-1.6094-4.9219c0.33203-0.44531 0.70312-0.77344 1.1094-0.98438 0.40625-0.20703 0.875-0.3125 1.4062-0.3125 0.9375 0 1.7031 0.375 2.2969 1.125 0.60156 0.74219 0.90625 1.6953 0.90625 2.8594 0 1.1797-0.30469 2.1406-0.90625 2.8906-0.59375 0.74219-1.3594 1.1094-2.2969 1.1094-0.53125 0-1-0.10547-1.4062-0.3125-0.40625-0.21875-0.77734-0.54688-1.1094-0.98438v1.0938h-2.4219v-10.547h2.4219z"/>
    </symbol>
    <symbol id="f" overflow="visible">
      <path d="m0.17188-7.5938h2.4219l2.0469 5.1562 1.7344-5.1562h2.4219l-3.1875 8.3125c-0.32422 0.84375-0.69922 1.4297-1.125 1.7656-0.42969 0.34375-0.99219 0.51562-1.6875 0.51562h-1.4062v-1.5938h0.76562c0.40625 0 0.70312-0.070312 0.89062-0.20312 0.1875-0.125 0.33203-0.35938 0.4375-0.70312l0.0625-0.20312z"/>
    </symbol>
    <symbol id="m" overflow="visible">
      <path d="m8.3281-9.8125v2.1406c-0.5625-0.23828-1.1094-0.42188-1.6406-0.54688-0.52344-0.13281-1.0156-0.20312-1.4844-0.20312-0.625 0-1.0898 0.089844-1.3906 0.26562-0.30469 0.16797-0.45312 0.43359-0.45312 0.79688 0 0.27344 0.097656 0.48438 0.29688 0.64062 0.20703 0.14844 0.57812 0.27734 1.1094 0.39062l1.1094 0.21875c1.125 0.23047 1.9219 0.57422 2.3906 1.0312 0.47656 0.46094 0.71875 1.1172 0.71875 1.9688 0 1.1172-0.33594 1.9492-1 2.5-0.65625 0.54297-1.668 0.8125-3.0312 0.8125-0.63672 0-1.2773-0.0625-1.9219-0.1875-0.64844-0.125-1.2969-0.30469-1.9531-0.54688v-2.2031c0.65625 0.34375 1.2812 0.60547 1.875 0.78125 0.60156 0.16797 1.1875 0.25 1.75 0.25 0.57031 0 1.0078-0.09375 1.3125-0.28125 0.30078-0.1875 0.45312-0.45703 0.45312-0.8125 0-0.3125-0.10547-0.55078-0.3125-0.71875-0.19922-0.17578-0.60547-0.33203-1.2188-0.46875l-1.0156-0.23438c-1.0117-0.20703-1.75-0.55078-2.2188-1.0312-0.46875-0.47656-0.70312-1.1172-0.70312-1.9219 0-1.0078 0.32031-1.7852 0.96875-2.3281 0.65625-0.53906 1.5938-0.8125 2.8125-0.8125 0.55078 0 1.1172 0.042969 1.7031 0.125 0.59375 0.085938 1.207 0.21094 1.8438 0.375z"/>
    </symbol>
    <symbol id="l" overflow="visible">
      <path d="m8.7969-4.625v4.625h-2.4375v-3.5469c0-0.65625-0.015625-1.1016-0.046875-1.3438-0.023438-0.25-0.070312-0.4375-0.14062-0.5625-0.10547-0.15625-0.24219-0.27344-0.40625-0.35938-0.15625-0.09375-0.33984-0.14062-0.54688-0.14062-0.5 0-0.89844 0.19922-1.1875 0.59375-0.29297 0.38672-0.4375 0.92969-0.4375 1.625v3.7344h-2.4219v-7.5938h2.4219v1.1094c0.36328-0.44531 0.75-0.77344 1.1562-0.98438 0.41406-0.20703 0.875-0.3125 1.375-0.3125 0.875 0 1.5352 0.27344 1.9844 0.8125 0.45703 0.53125 0.6875 1.3125 0.6875 2.3438z"/>
    </symbol>
    <symbol id="k" overflow="visible">
      <path d="m8.7969-4.625v4.625h-2.4375v-3.5312c0-0.66406-0.015625-1.1172-0.046875-1.3594-0.023438-0.25-0.070312-0.4375-0.14062-0.5625-0.10547-0.15625-0.24219-0.27344-0.40625-0.35938-0.15625-0.09375-0.33984-0.14062-0.54688-0.14062-0.5 0-0.89844 0.19922-1.1875 0.59375-0.29297 0.38672-0.4375 0.92969-0.4375 1.625v3.7344h-2.4219v-10.547h2.4219v4.0625c0.36328-0.44531 0.75-0.77344 1.1562-0.98438 0.41406-0.20703 0.875-0.3125 1.375-0.3125 0.875 0 1.5352 0.27344 1.9844 0.8125 0.45703 0.53125 0.6875 1.3125 0.6875 2.3438z"/>
    </symbol>
    <symbol id="j" overflow="visible">
      <path d="m1.1719-7.5938h2.4219v7.5938h-2.4219zm0-2.9531h2.4219v1.9688h-2.4219z"/>
    </symbol>
    <symbol id="i" overflow="visible">
      <path d="m1.2812-10.125h4.3281c1.2891 0 2.2812 0.28906 2.9688 0.85938 0.6875 0.57422 1.0312 1.3867 1.0312 2.4375 0 1.0625-0.34375 1.8828-1.0312 2.4531-0.6875 0.57422-1.6797 0.85938-2.9688 0.85938h-1.7188v3.5156h-2.6094zm2.6094 1.8906v2.8281h1.4375c0.50781 0 0.89844-0.11719 1.1719-0.35938 0.28125-0.25 0.42188-0.60156 0.42188-1.0625 0-0.44531-0.14062-0.78906-0.42188-1.0312-0.27344-0.25-0.66406-0.375-1.1719-0.375z"/>
    </symbol>
    <symbol id="t" overflow="visible">
      <path d="m7.0938-7.3594v1.8438c-0.51172-0.21875-1.0117-0.37891-1.5-0.48438-0.48047-0.11328-0.9375-0.17188-1.375-0.17188-0.46094 0-0.80469 0.0625-1.0312 0.1875-0.21875 0.11719-0.32812 0.29297-0.32812 0.53125 0 0.1875 0.082031 0.33594 0.25 0.4375 0.17578 0.10547 0.48438 0.18359 0.92188 0.23438l0.42188 0.0625c1.25 0.15625 2.0859 0.41797 2.5156 0.78125 0.42578 0.36719 0.64062 0.93359 0.64062 1.7031 0 0.80469-0.30469 1.4141-0.90625 1.8281-0.59375 0.40625-1.4805 0.60938-2.6562 0.60938-0.5 0-1.0234-0.042969-1.5625-0.125-0.53125-0.082031-1.0859-0.20312-1.6562-0.35938v-1.8438c0.48828 0.24219 0.98828 0.41797 1.5 0.53125 0.50781 0.11719 1.0234 0.17188 1.5469 0.17188 0.46875 0 0.82031-0.0625 1.0625-0.1875 0.23828-0.13281 0.35938-0.33203 0.35938-0.59375 0-0.20703-0.085937-0.36328-0.25-0.46875-0.15625-0.11328-0.48438-0.20312-0.98438-0.26562l-0.42188-0.046875c-1.0859-0.13281-1.8438-0.38281-2.2812-0.75-0.42969-0.36328-0.64062-0.92188-0.64062-1.6719 0-0.80078 0.27344-1.3945 0.82812-1.7812 0.55078-0.39453 1.3945-0.59375 2.5312-0.59375 0.44531 0 0.91406 0.039062 1.4062 0.10938 0.5 0.0625 1.0352 0.16797 1.6094 0.3125z"/>
    </symbol>
    <symbol id="h" overflow="visible">
      <path d="m8.2031-6.3281c0.3125-0.47656 0.67578-0.83594 1.0938-1.0781 0.42578-0.25 0.89453-0.375 1.4062-0.375 0.86328 0 1.5234 0.27344 1.9844 0.8125 0.45703 0.53125 0.6875 1.3125 0.6875 2.3438v4.625h-2.4375v-3.9688-0.17188c0.007812-0.0625 0.015625-0.15625 0.015625-0.28125 0-0.53125-0.085937-0.91406-0.25-1.1562-0.15625-0.25-0.41406-0.375-0.76562-0.375-0.46094 0-0.8125 0.19531-1.0625 0.57812-0.25 0.375-0.38281 0.92188-0.39062 1.6406v3.7344h-2.4375v-3.9688c0-0.83203-0.074219-1.3672-0.21875-1.6094-0.14844-0.25-0.40625-0.375-0.78125-0.375-0.46094 0-0.82031 0.19531-1.0781 0.57812-0.25 0.38672-0.375 0.93359-0.375 1.6406v3.7344h-2.4375v-7.5938h2.4375v1.1094c0.30078-0.42578 0.64453-0.75 1.0312-0.96875 0.38281-0.21875 0.8125-0.32812 1.2812-0.32812 0.51953 0 0.97656 0.13281 1.375 0.39062 0.40625 0.25 0.71094 0.60547 0.92188 1.0625z"/>
    </symbol>
    <symbol id="b" overflow="visible">
      <path d="m4.7812-6.0469c-0.54297 0-0.95312 0.19531-1.2344 0.57812-0.28125 0.38672-0.42188 0.94531-0.42188 1.6719 0 0.73047 0.14062 1.2891 0.42188 1.6719 0.28125 0.38672 0.69141 0.57812 1.2344 0.57812 0.53125 0 0.9375-0.19141 1.2188-0.57812 0.28125-0.38281 0.42188-0.94141 0.42188-1.6719 0-0.72656-0.14062-1.2852-0.42188-1.6719-0.28125-0.38281-0.6875-0.57812-1.2188-0.57812zm0-1.7344c1.3008 0 2.3203 0.35547 3.0625 1.0625 0.73828 0.71094 1.1094 1.6836 1.1094 2.9219 0 1.25-0.37109 2.2305-1.1094 2.9375-0.74219 0.71094-1.7617 1.0625-3.0625 1.0625-1.3125 0-2.3398-0.35156-3.0781-1.0625-0.74219-0.70703-1.1094-1.6875-1.1094-2.9375 0-1.2383 0.36719-2.2109 1.1094-2.9219 0.73828-0.70703 1.7656-1.0625 3.0781-1.0625z"/>
    </symbol>
    <symbol id="s" overflow="visible">
      <path d="m6.1719-10.547v1.5938h-1.3438c-0.34375 0-0.58594 0.0625-0.71875 0.1875-0.13672 0.11719-0.20312 0.32812-0.20312 0.64062v0.53125h2.0625v1.7344h-2.0625v5.8594h-2.4375v-5.8594h-1.2031v-1.7344h1.2031v-0.53125c0-0.82031 0.22656-1.4297 0.6875-1.8281 0.46875-0.39453 1.1875-0.59375 2.1562-0.59375z"/>
    </symbol>
    <symbol id="r" overflow="visible">
      <path d="m1.2812-10.125h2.9062l3.6875 6.9375v-6.9375h2.4688v10.125h-2.9062l-3.6875-6.9531v6.9531h-2.4688z"/>
    </symbol>
    <symbol id="q" overflow="visible">
      <path d="m1.0781-2.9531v-4.6406h2.4531v0.75c0 0.41797-0.007812 0.9375-0.015625 1.5625v1.2344c0 0.61719 0.015625 1.0586 0.046875 1.3281 0.03125 0.27344 0.082031 0.46484 0.15625 0.57812 0.10156 0.15625 0.23438 0.28125 0.39062 0.375 0.16406 0.085937 0.35156 0.125 0.5625 0.125 0.5 0 0.89453-0.19141 1.1875-0.57812 0.28906-0.39453 0.4375-0.9375 0.4375-1.625v-3.75h2.4219v7.5938h-2.4219v-1.0938c-0.36719 0.4375-0.75781 0.76562-1.1719 0.98438-0.40625 0.20703-0.85547 0.3125-1.3438 0.3125-0.875 0-1.5469-0.26953-2.0156-0.8125-0.46094-0.53906-0.6875-1.3203-0.6875-2.3438z"/>
    </symbol>
    <symbol id="p" overflow="visible">
      <path d="m1.1719-7.5938h2.4219v7.4531c0 1.0195-0.24609 1.7969-0.73438 2.3281-0.49219 0.53906-1.1992 0.8125-2.125 0.8125h-1.2031v-1.5938h0.42188c0.46875 0 0.78516-0.10547 0.95312-0.3125 0.17578-0.21094 0.26562-0.62109 0.26562-1.2344zm0-2.9531h2.4219v1.9688h-2.4219z"/>
    </symbol>
    <symbol id="o" overflow="visible">
      <path d="m7.3125-7.3594v1.9844c-0.33594-0.22656-0.66797-0.39453-1-0.5-0.33594-0.11328-0.67969-0.17188-1.0312-0.17188-0.67969 0-1.2109 0.19922-1.5938 0.59375-0.375 0.39844-0.5625 0.94922-0.5625 1.6562 0 0.71094 0.1875 1.2617 0.5625 1.6562 0.38281 0.39844 0.91406 0.59375 1.5938 0.59375 0.375 0 0.73438-0.050781 1.0781-0.15625 0.34375-0.11328 0.66016-0.28516 0.95312-0.51562v2c-0.38672 0.13672-0.77734 0.23828-1.1719 0.3125-0.38672 0.070312-0.77734 0.10938-1.1719 0.10938-1.3672 0-2.4375-0.34766-3.2188-1.0469-0.77344-0.70703-1.1562-1.6914-1.1562-2.9531 0-1.25 0.38281-2.2227 1.1562-2.9219 0.78125-0.70703 1.8516-1.0625 3.2188-1.0625 0.39453 0 0.78516 0.039062 1.1719 0.10938 0.39453 0.074219 0.78516 0.17969 1.1719 0.3125z"/>
    </symbol>
    <linearGradient gradientUnits="userSpaceOnUse" x1="433.335" y1="4.516" x2="433.335" y2="71.184" id="gradient-0" gradientTransform="matrix(-0.16569, -0.986178, 5.357102, -0.900056, 298.849232, 502.781343)">
      <stop offset="0" style="stop-color: rgb(98, 88, 255);"/>
      <stop offset="1" style="stop-color: rgb(230, 227, 255);"/>
    </linearGradient>
    <linearGradient gradientUnits="userSpaceOnUse" x1="500.696" y1="101.73" x2="500.696" y2="168.398" id="gradient-1" gradientTransform="matrix(-0.212558, -0.977149, 3.773722, -0.820887, 129.976817, 738.709426)">
      <stop offset="0" style="stop-color: rgb(98, 88, 255);"/>
      <stop offset="1" style="stop-color: rgb(230, 227, 255);"/>
    </linearGradient>
    <linearGradient gradientUnits="userSpaceOnUse" x1="503.471" y1="198.96" x2="503.471" y2="265.628" id="gradient-2" gradientTransform="matrix(-0.398225, -0.917288, 1.860474, -0.807694, 272.22853, 883.06318)">
      <stop offset="0" style="stop-color: rgb(98, 88, 255);"/>
      <stop offset="1" style="stop-color: rgb(230, 227, 255);"/>
    </linearGradient>
    <linearGradient gradientUnits="userSpaceOnUse" x1="554.513" y1="296.18" x2="554.513" y2="362.848" id="gradient-3" gradientTransform="matrix(-0.280183, -0.959948, 2.902864, -0.847276, -250.1745, 1144.526033)">
      <stop offset="0" style="stop-color: rgb(98, 88, 255);"/>
      <stop offset="1" style="stop-color: rgb(230, 227, 255);"/>
    </linearGradient>
    <linearGradient gradientUnits="userSpaceOnUse" x1="553.476" y1="393.4" x2="553.476" y2="460.068" id="gradient-4" gradientTransform="matrix(-0.217558, -0.976048, 4.156373, -0.926447, -1102.855692, 1365.818433)">
      <stop offset="0" style="stop-color: rgb(98, 88, 255);"/>
      <stop offset="1" style="stop-color: rgb(230, 227, 255);"/>
    </linearGradient>
    <linearGradient gradientUnits="userSpaceOnUse" x1="439.575" y1="490.62" x2="439.575" y2="557.288" id="gradient-5" gradientTransform="matrix(0.161894, 0.986808, -5.291125, 0.868053, 3142.916185, -362.882843)">
      <stop offset="0" style="stop-color: rgb(230, 227, 255);"/>
      <stop offset="1" style="stop-color: rgb(98, 88, 255);"/>
    </linearGradient>
    <linearGradient gradientUnits="userSpaceOnUse" x1="211.11" y1="104.511" x2="211.11" y2="526.729" id="gradient-6" gradientTransform="matrix(-0.261377, -0.965237, 0.654206, -0.177153, 98.51444, 496.573577)">
      <stop offset="0" style="stop-color: rgb(98, 88, 255);"/>
      <stop offset="1" style="stop-color: rgb(230, 227, 255);"/>
    </linearGradient>
  </defs>
  <g>
    <path d="m252.78 4.5156h361.11c27.777 0 27.777 66.668 0 66.668h-361.11c-27.777 0-27.777-66.668 0-66.668z" fill-rule="evenodd" style="fill: url(#gradient-0);"/>
    <path d="m327.78 101.73h325c27.777 0 27.777 66.668 0 66.668h-247.22c-5.5547-8.332-13.891-16.668-22.223-25-16.668-16.668-33.332-30.555-55.555-41.668z" fill-rule="evenodd" style="fill: url(#gradient-1);"/>
    <path d="m425 198.96h136.11c27.777 0 27.777 66.668 0 66.668h-111.11c-5.5547-22.223-13.891-44.445-25-66.668z" fill-rule="evenodd" style="fill: url(#gradient-2);"/>
    <path d="m452.78 296.18h183.33c30.555 0 30.555 66.668 0 66.668h-186.11c2.7773-13.891 5.5547-30.555 5.5547-47.223 0-8.332 0-13.891-2.7773-19.445z" fill-rule="evenodd" style="fill: url(#gradient-3);"/>
    <path d="m441.67 393.4h238.89c27.777 0 27.777 66.668 0 66.668h-275c16.668-19.445 27.777-41.668 36.109-66.668z" fill-rule="evenodd" style="fill: url(#gradient-4);"/>
    <path d="m380.55 490.62h233.33c27.777 0 27.777 66.668 0 66.668h-361.11c-2.7773 0-5.5547 0-8.332-2.7773 50-5.5547 97.223-27.777 136.11-63.891z" fill-rule="evenodd" style="fill: url(#gradient-5);"/>
    <path d="m361.11 165.62c-38.891-38.891-91.668-61.109-150-61.109s-111.11 22.223-150 61.109c-36.109 38.891-61.109 91.668-61.109 150s25 111.11 61.109 150c38.891 36.109 91.668 61.109 150 61.109s111.11-25 150-61.109c38.891-38.891 61.109-91.668 61.109-150s-22.223-111.11-61.109-150zm-94.445 147.22c33.332 25 33.332 66.668 0 91.668-8.332 5.5547-16.668 8.332-27.777 11.109v19.445c0 13.891-19.445 13.891-19.445 0v-16.668c-2.7773 2.7773-8.332 2.7773-13.891 2.7773v13.891c0 13.891-19.445 13.891-19.445 0v-19.445c-11.109 0-22.223-5.5547-30.555-11.109-16.668-13.891-25-27.777-25-47.223 0-22.223 38.891-22.223 38.891 0 0 8.332 5.5547 13.891 11.109 16.668 2.7773 2.7773 2.7773 2.7773 5.5547 5.5547v-50c-8.332-2.7773-19.445-5.5547-30.555-13.891-33.332-25-33.332-63.891 0-88.891 8.332-8.332 19.445-11.109 30.555-13.891v-19.445c0-11.109 19.445-11.109 19.445 0v16.668h13.891v-16.668c0-11.109 19.445-11.109 19.445 0v19.445c11.109 2.7773 19.445 8.332 27.777 13.891 16.668 11.109 25 27.777 25 44.445 0 25-38.891 25-38.891 0 0-5.5547-5.5547-11.109-11.109-16.668l-2.7773-2.7773v50c8.332 0 19.445 5.5547 27.777 11.109zm-47.223-66.668h-13.891v50c5.5547 0 8.332 0 13.891 2.7773zm19.445 94.445v36.109c2.7773 0 2.7773 0 2.7773-2.7773 13.891-8.332 13.891-22.223 0-33.332h-2.7773zm-19.445 41.668v-50h-13.891v50c5.5547 2.7773 11.109 2.7773 13.891 0zm-33.332-130.55c-2.7773 0-2.7773 0-5.5547 2.7773-13.891 8.332-13.891 25 0 33.332 2.7773 0 2.7773 2.7773 5.5547 2.7773v-38.891z" style="fill: url(#gradient-6);"/>
    <use transform="matrix(1, 0, 0, 1, 0, 598.95703125)" style="fill: url(#gradient-7);" xlink:href="#u"/>
    <use transform="matrix(1, 0, 0, 1, 10.19140625, 598.95703125)" style="fill: url(#gradient-8);" xlink:href="#a"/>
    <use transform="matrix(1, 0, 0, 1, 17.04296875, 598.95703125)" style="fill: url(#gradient-9);" xlink:href="#c"/>
    <use transform="matrix(1, 0, 0, 1, 26.4609375, 598.95703125)" style="fill: url(#gradient-10);" xlink:href="#e"/>
    <use transform="matrix(1, 0, 0, 1, 35.8359375, 598.95703125)" style="fill: url(#gradient-11);" xlink:href="#d"/>
    <use transform="matrix(1, 0, 0, 1, 42.47265625, 598.95703125)" style="fill: url(#gradient-12);" xlink:href="#c"/>
    <use transform="matrix(1, 0, 0, 1, 51.89453125, 598.95703125)" style="fill: url(#gradient-13);" xlink:href="#g"/>
    <use transform="matrix(1, 0, 0, 1, 66.671875, 598.95703125)" style="fill: url(#gradient-14);" xlink:href="#n"/>
    <use transform="matrix(1, 0, 0, 1, 76.61328125, 598.95703125)" style="fill: url(#gradient-15);" xlink:href="#f"/>
    <use transform="matrix(1, 0, 0, 1, 90.5, 598.95703125)" style="fill: url(#gradient-16);" xlink:href="#m"/>
    <use transform="matrix(1, 0, 0, 1, 100.50390625, 598.95703125)" style="fill: url(#gradient-17);" xlink:href="#e"/>
    <use transform="matrix(1, 0, 0, 1, 109.875, 598.95703125)" style="fill: url(#gradient-18);" xlink:href="#l"/>
    <use transform="matrix(1, 0, 0, 1, 119.765625, 598.95703125)" style="fill: url(#gradient-19);" xlink:href="#g"/>
    <use transform="matrix(1, 0, 0, 1, 129.70703125, 598.95703125)" style="fill: url(#gradient-20);" xlink:href="#k"/>
    <use transform="matrix(1, 0, 0, 1, 139.59375, 598.95703125)" style="fill: url(#gradient-21);" xlink:href="#j"/>
    <use transform="matrix(1, 0, 0, 1, 149.19140625, 598.95703125)" style="fill: url(#gradient-22);" xlink:href="#i"/>
    <use transform="matrix(1, 0, 0, 1, 159.37109375, 598.95703125)" style="fill: url(#gradient-23);" xlink:href="#a"/>
    <use transform="matrix(1, 0, 0, 1, 166.21875, 598.95703125)" style="fill: url(#gradient-24);" xlink:href="#j"/>
    <use transform="matrix(1, 0, 0, 1, 170.98046875, 598.95703125)" style="fill: url(#gradient-25);" xlink:href="#f"/>
    <use transform="matrix(1, 0, 0, 1, 180.03515625, 598.95703125)" style="fill: url(#gradient-26);" xlink:href="#e"/>
    <use transform="matrix(1, 0, 0, 1, 189.40625, 598.95703125)" style="fill: url(#gradient-27);" xlink:href="#t"/>
    <use transform="matrix(1, 0, 0, 1, 197.671875, 598.95703125)" style="fill: url(#gradient-28);" xlink:href="#h"/>
    <use transform="matrix(1, 0, 0, 1, 212.14453125, 598.95703125)" style="fill: url(#gradient-29);" xlink:href="#b"/>
    <use transform="matrix(1, 0, 0, 1, 221.6875, 598.95703125)" style="fill: url(#gradient-30);" xlink:href="#a"/>
    <use transform="matrix(1, 0, 0, 1, 228.53515625, 598.95703125)" style="fill: url(#gradient-31);" xlink:href="#b"/>
    <use transform="matrix(1, 0, 0, 1, 0, 612.84765625)" style="fill: url(#gradient-32);" xlink:href="#s"/>
    <use transform="matrix(1, 0, 0, 1, 6.042969226837158, 612.84765625)" style="fill: url(#gradient-33);" xlink:href="#a"/>
    <use transform="matrix(1, 0, 0, 1, 12.890625, 612.84765625)" style="fill: url(#gradient-34);" xlink:href="#b"/>
    <use transform="matrix(1, 0, 0, 1, 22.43359375, 612.84765625)" style="fill: url(#gradient-35);" xlink:href="#h"/>
    <use transform="matrix(1, 0, 0, 1, 41.7421875, 612.84765625)" style="fill: url(#gradient-36);" xlink:href="#d"/>
    <use transform="matrix(1, 0, 0, 1, 48.37890625, 612.84765625)" style="fill: url(#gradient-37);" xlink:href="#k"/>
    <use transform="matrix(1, 0, 0, 1, 58.26953125, 612.84765625)" style="fill: url(#gradient-38);" xlink:href="#c"/>
    <use transform="matrix(1, 0, 0, 1, 72.5234375, 612.84765625)" style="fill: url(#gradient-39);" xlink:href="#r"/>
    <use transform="matrix(1, 0, 0, 1, 84.1484375, 612.84765625)" style="fill: url(#gradient-40);" xlink:href="#b"/>
    <use transform="matrix(1, 0, 0, 1, 93.6875, 612.84765625)" style="fill: url(#gradient-41);" xlink:href="#q"/>
    <use transform="matrix(1, 0, 0, 1, 103.578125, 612.84765625)" style="fill: url(#gradient-42);" xlink:href="#l"/>
    <use transform="matrix(1, 0, 0, 1, 118.30078125, 612.84765625)" style="fill: url(#gradient-43);" xlink:href="#i"/>
    <use transform="matrix(1, 0, 0, 1, 128.48046875, 612.84765625)" style="fill: url(#gradient-44);" xlink:href="#a"/>
    <use transform="matrix(1, 0, 0, 1, 135.328125, 612.84765625)" style="fill: url(#gradient-45);" xlink:href="#b"/>
    <use transform="matrix(1, 0, 0, 1, 144.87109375, 612.84765625)" style="fill: url(#gradient-46);" xlink:href="#p"/>
    <use transform="matrix(1, 0, 0, 1, 149.6328125, 612.84765625)" style="fill: url(#gradient-47);" xlink:href="#c"/>
    <use transform="matrix(1, 0, 0, 1, 159.05078125, 612.84765625)" style="fill: url(#gradient-48);" xlink:href="#o"/>
    <use transform="matrix(1, 0, 0, 1, 167.28515625, 612.84765625)" style="fill: url(#gradient-49);" xlink:href="#d"/>
  </g>
</svg>